# xmcd
#
# Track frame offsets: 
#        150
#        32354
#        69262
#        101613
#        140576
#        167988
#        202219
#        238092
#        278427
#
# Disc length: 4314 seconds
#
# Revision: 1
# Processed by: cddbd v1.5.2PL0 Copyright (c) Steve Scherf et al.
# Submitted via: ExactAudioCopy v0.99pb4
#
DISCID=7c10d809
DTITLE=Various Artist - Purple Music The master Collection 3 cd2
DYEAR=2006
DGENRE=House
TTITLE0=Djaimin - Give you (Crystal Reclear Extended 2006 RMX)
TTITLE1=Jamie Lewis feat. Michelle Weeks - Be thankful (Jazz n groove 
TTITLE1=old skool mix)
TTITLE2=Jamie Lewis and DJ Pippi feat. Kim Cooper - So sexy (Jamie Lewis
TTITLE2=censured mix)
TTITLE3=Direct Disco - Join the discoride (Full spoken mix)
TTITLE4=Tanja Dankner - Will i ever (Jamie Lewis dub mix)
TTITLE5=The Funk Ensemble - Moon dancing
TTITLE6=Mankz - Keep on givin' (Original Mix)
TTITLE7=Delicious Inc - Love me or leave me (Dimitri and Tom Remix)
TTITLE8=Smooth Touch feat. G-Sax - 10 minutes of pleasure
EXTD=
EXTT0=
EXTT1=
EXTT2=
EXTT3=
EXTT4=
EXTT5=
EXTT6=
EXTT7=
EXTT8=
PLAYORDER=
